<svg id="noun-branding-1946196" xmlns="http://www.w3.org/2000/svg" width="64.13" height="64.132" viewBox="0 0 64.13 64.132">
  <path id="Path_90" data-name="Path 90" d="M88.569,58.115h9.619V55.978H89.638V19.638h23.514v2.138h2.138V18.569a1.069,1.069,0,0,0-1.069-1.069H88.569A1.069,1.069,0,0,0,87.5,18.569V57.047a1.069,1.069,0,0,0,1.069,1.069Z" transform="translate(-87.5 -17.5)"/>
  <path id="Path_91" data-name="Path 91" d="M128.322,53.677l-2.138-1.069a1.068,1.068,0,0,0-.955,0l-2.138,1.069a1.069,1.069,0,0,0-.591.957v2.138a1.069,1.069,0,0,0,.591.957l2.138,1.069a1.068,1.068,0,0,0,.955,0l2.138-1.069a1.069,1.069,0,0,0,.591-.957V54.633A1.069,1.069,0,0,0,128.322,53.677Zm-1.546,2.434-1.069.534-1.069-.534v-.817l1.069-.534,1.069.534Z" transform="translate(-118.225 -48.22)"/>
  <path id="Path_92" data-name="Path 92" d="M192.5,71.069v38.478a1.069,1.069,0,0,0,1.069,1.069h27.789a1.069,1.069,0,0,0,1.069-1.069V71.069A1.069,1.069,0,0,0,221.358,70H193.569A1.069,1.069,0,0,0,192.5,71.069Zm2.138,1.069h25.652v36.34H194.638Z" transform="translate(-179.674 -63.587)"/>
  <path id="Path_93" data-name="Path 93" d="M275.248,169.084a1.016,1.016,0,0,0-.087-.181c-.018-.029-.037-.057-.059-.084a1.111,1.111,0,0,0-.128-.14c-.027-.023-.052-.048-.079-.07s-.026-.025-.04-.034h0a1.285,1.285,0,0,0-.147-.075c-.021-.01-.035-.025-.055-.033l-5.344-2.138h0a1.089,1.089,0,0,0-.795,0l-5.344,2.138c-.021.009-.037.025-.058.034a1.138,1.138,0,0,0-.145.073c-.014.01-.025.023-.04.034s-.052.046-.079.07h0a1.111,1.111,0,0,0-.128.14.994.994,0,0,0-.059.084,1.016,1.016,0,0,0-.087.181c-.011.028-.025.055-.033.084h0a1.064,1.064,0,0,0-.044.292V174.8a1.068,1.068,0,0,0,.671.993l5.344,2.138a.073.073,0,0,1,.04.008.971.971,0,0,0,.716,0,.074.074,0,0,0,.04-.008l5.344-2.138a1.068,1.068,0,0,0,.671-.993V169.46a1.065,1.065,0,0,0-.044-.292C275.272,169.139,275.258,169.111,275.248,169.084Zm-6.336-.611,2.466.987-2.466.987-2.466-.987Zm-4.275,2.565,3.206,1.283v3.042l-3.206-1.283Zm5.344,4.324v-3.042l3.206-1.283v3.042Z" transform="translate(-241.122 -148.083)"/>
  <path id="Path_94" data-name="Path 94" d="M473.17,70h-17.1A1.069,1.069,0,0,0,455,71.069V81.757a1.069,1.069,0,0,0,1.069,1.069h17.1a1.069,1.069,0,0,0,1.069-1.069V71.069A1.069,1.069,0,0,0,473.17,70ZM472.1,80.688H457.138V72.138H472.1Z" transform="translate(-410.109 -63.587)"/>
  <path id="Path_95" data-name="Path 95" d="M490,105h2.138v2.138H490Z" transform="translate(-440.834 -94.312)"/>
  <path id="Path_96" data-name="Path 96" d="M474.239,193.569a1.069,1.069,0,0,0-1.069-1.069h-17.1A1.069,1.069,0,0,0,455,193.569v10.688a1.069,1.069,0,0,0,1.069,1.069h17.1a1.069,1.069,0,0,0,1.069-1.069Zm-2.138,9.619H457.138v-8.551H472.1Z" transform="translate(-410.109 -171.123)"/>
  <path id="Path_97" data-name="Path 97" d="M490,236.25h2.138v2.138H490Z" transform="translate(-440.834 -209.529)"/>
  <path id="Path_98" data-name="Path 98" d="M525,236.25h6.413v2.138H525Z" transform="translate(-471.559 -209.529)"/>
  <path id="Path_99" data-name="Path 99" d="M175,433.895a1.069,1.069,0,0,0,1.069,1.069h23.514a1.069,1.069,0,0,0,1.069-1.069V421.069A1.069,1.069,0,0,0,199.583,420H176.069A1.069,1.069,0,0,0,175,421.069Zm2.138-11.757h21.377v10.688H177.138Z" transform="translate(-164.312 -370.834)"/>
  <path id="Path_100" data-name="Path 100" d="M427.083,420H403.569a1.069,1.069,0,0,0-1.069,1.069v12.826a1.069,1.069,0,0,0,1.069,1.069h23.514a1.069,1.069,0,0,0,1.069-1.069V421.069A1.069,1.069,0,0,0,427.083,420Zm-22.445,2.138h21.377v1.069a1.069,1.069,0,0,1-1.069,1.069H405.706a1.069,1.069,0,0,1-1.069-1.069Zm0,10.688v-6.609a3.168,3.168,0,0,0,1.069.2h19.239a3.168,3.168,0,0,0,1.069-.2v6.609Z" transform="translate(-364.022 -370.831)"/>
  <path id="Path_101" data-name="Path 101" d="M215.822,456.179l-2.138-1.069a1.068,1.068,0,0,0-.955,0l-2.138,1.069a1.069,1.069,0,0,0-.591.957v2.138a1.069,1.069,0,0,0,.591.962l2.138,1.069a1.068,1.068,0,0,0,.955,0l2.138-1.069a1.069,1.069,0,0,0,.591-.962v-2.138A1.069,1.069,0,0,0,215.822,456.179Zm-1.546,2.434-1.069.534-1.069-.534V457.8l1.069-.534,1.069.534Z" transform="translate(-195.036 -401.556)"/>
  <path id="Path_102" data-name="Path 102" d="M437.5,490h2.138v2.138H437.5Z" transform="translate(-394.747 -432.283)"/>
  <path id="Path_103" data-name="Path 103" d="M472.5,490h6.413v2.138H472.5Z" transform="translate(-425.472 -432.283)"/>
</svg>
