<svg xmlns="http://www.w3.org/2000/svg" width="24.926" height="27.695" viewBox="0 0 24.926 27.695">
  <path id="event_FILL0_wght400_GRAD0_opsz48" d="M22.513,26.849a3.311,3.311,0,1,1,2.389-.969,3.246,3.246,0,0,1-2.389.969ZM8.077,31.7A2.13,2.13,0,0,1,6,29.618V8.154A2.13,2.13,0,0,1,8.077,6.077h2.25V5.108A1.067,1.067,0,0,1,11.435,4a1.138,1.138,0,0,1,.814.312,1.049,1.049,0,0,1,.329.8v.969H24.348V5.108A1.067,1.067,0,0,1,25.456,4a1.138,1.138,0,0,1,.814.312,1.049,1.049,0,0,1,.329.8v.969h2.25a2.13,2.13,0,0,1,2.077,2.077V29.618A2.13,2.13,0,0,1,28.849,31.7Zm0-2.077H28.849V14.732H8.077Zm0-16.963H28.849v-4.5H8.077Zm0,0v0Z" transform="translate(-6 -4)"/>
</svg>
