<svg id="noun-development-1958035" xmlns="http://www.w3.org/2000/svg" width="65.404" height="59.272" viewBox="0 0 65.404 59.272">
  <path id="Path_4" data-name="Path 4" d="M134.382,73.259H71.022A1.022,1.022,0,0,1,70,72.237V27.272a1.022,1.022,0,0,1,1.022-1.022h63.36a1.022,1.022,0,0,1,1.022,1.022V72.237a1.022,1.022,0,0,1-1.022,1.022ZM72.044,71.215H133.36V28.294H72.044Z" transform="translate(-70 -26.25)"/>
  <path id="Path_5" data-name="Path 5" d="M78.75,358.75h63.36v2.044H78.75Z" transform="translate(-77.728 -319.916)"/>
  <path id="Path_6" data-name="Path 6" d="M275.212,421.469H254.773a1.022,1.022,0,0,1-.991-1.269l2.044-8.176a1.022,1.022,0,0,1,.991-.775h16.351a1.022,1.022,0,0,1,.991.775L276.2,420.2a1.022,1.022,0,0,1-.991,1.269Zm-19.129-2.044H273.9l-1.533-6.132H257.615Z" transform="translate(-232.291 -366.285)"/>
  <path id="Path_7" data-name="Path 7" d="M247.364,487.382h-26.57a2.044,2.044,0,0,1-2.044-2.044v-2.044a2.044,2.044,0,0,1,2.044-2.044h26.57a2.044,2.044,0,0,1,2.044,2.044v2.044a2.044,2.044,0,0,1-2.044,2.044Zm-27.592-2.044,1.022,0h26.57v-2.044h-26.57Z" transform="translate(-201.377 -428.109)"/>
  <path id="Path_8" data-name="Path 8" d="M98.166,220.666H96.122v-2.1l-3.521-.193a1.021,1.021,0,0,1-.938-.784,13.235,13.235,0,0,0-1.613-3.883,1.022,1.022,0,0,1,.109-1.217l2.359-2.631L89.555,206.9l-2.631,2.36a1.022,1.022,0,0,1-1.218.109,13.225,13.225,0,0,0-3.883-1.613,1.022,1.022,0,0,1-.783-.938l-.193-3.521h-2.1v-2.044h3.066a1.022,1.022,0,0,1,1.022.966l.2,3.746h0a15.254,15.254,0,0,1,3.066,1.277l2.8-2.509a1.022,1.022,0,0,1,1.405.039l4.333,4.333a1.022,1.022,0,0,1,.039,1.405l-2.5,2.8a15.26,15.26,0,0,1,1.277,3.066l3.746.2h0a1.022,1.022,0,0,1,.966,1.022Z" transform="translate(-77.727 -180.81)"/>
  <path id="Path_9" data-name="Path 9" d="M88.969,290.219H86.925a8.185,8.185,0,0,0-8.175-8.175V280a10.23,10.23,0,0,1,10.219,10.219Z" transform="translate(-77.728 -250.364)"/>
  <path id="Path_10" data-name="Path 10" d="M474.416,54.416h-3.066a1.022,1.022,0,0,1-1.022-.966l-.2-3.746h0a15.254,15.254,0,0,1-3.066-1.277l-2.8,2.514a1.022,1.022,0,0,1-1.405-.039l-4.333-4.333a1.022,1.022,0,0,1-.039-1.405l2.509-2.807a15.263,15.263,0,0,1-1.277-3.066l-3.745-.2A1.022,1.022,0,0,1,455,38.065V35h2.044v2.1l3.521.193a1.022,1.022,0,0,1,.938.783,13.221,13.221,0,0,0,1.613,3.883,1.022,1.022,0,0,1-.109,1.218l-2.359,2.631,2.964,2.964,2.631-2.359a1.022,1.022,0,0,1,1.218-.109,13.225,13.225,0,0,0,3.883,1.613,1.022,1.022,0,0,1,.783.938l.193,3.521h2.1Z" transform="translate(-410.034 -33.978)"/>
  <path id="Path_11" data-name="Path 11" d="M543.969,45.219A10.23,10.23,0,0,1,533.75,35h2.044a8.185,8.185,0,0,0,8.175,8.175Z" transform="translate(-479.587 -33.978)"/>
  <path id="Path_12" data-name="Path 12" d="M236.123,100.658h-4.088a1.022,1.022,0,0,1-1.022-.949l-.257-3.649a11.244,11.244,0,0,1-1.913-.793l-2.767,2.4h0a1.022,1.022,0,0,1-1.391-.049l-2.891-2.891a1.022,1.022,0,0,1-.049-1.391l2.4-2.767h0a11.245,11.245,0,0,1-.793-1.913L219.7,88.4a1.022,1.022,0,0,1-.949-1.022V83.285a1.022,1.022,0,0,1,.949-1.022l3.649-.26a11.151,11.151,0,0,1,.793-1.913l-2.4-2.767a1.022,1.022,0,0,1,.049-1.391l2.891-2.891a1.022,1.022,0,0,1,1.391-.049l2.767,2.4h0a11.21,11.21,0,0,1,1.913-.793l.257-3.647A1.022,1.022,0,0,1,232.035,70h4.088a1.022,1.022,0,0,1,1.022.949l.26,3.649a11.24,11.24,0,0,1,1.913.793l2.767-2.4a1.022,1.022,0,0,1,1.391.049l2.891,2.891a1.022,1.022,0,0,1,.049,1.391l-2.4,2.767h0a11.158,11.158,0,0,1,.793,1.913l3.647.257a1.022,1.022,0,0,1,.949,1.022v4.088a1.022,1.022,0,0,1-.949,1.022l-3.649.26a11.241,11.241,0,0,1-.793,1.913l2.4,2.767a1.022,1.022,0,0,1-.049,1.391l-2.891,2.891a1.022,1.022,0,0,1-1.391.049l-2.767-2.4h0a11.211,11.211,0,0,1-1.913.793l-.257,3.647a1.022,1.022,0,0,1-1.022.949Zm-3.136-2.044h2.185l.244-3.423h0a1.022,1.022,0,0,1,.784-.92,9.135,9.135,0,0,0,2.7-1.124,1.023,1.023,0,0,1,1.206.1L242.7,95.5l1.544-1.544L242,91.359a1.022,1.022,0,0,1-.1-1.206,9.167,9.167,0,0,0,1.124-2.7,1.021,1.021,0,0,1,.92-.784l3.42-.247V84.237l-3.423-.244a1.023,1.023,0,0,1-.92-.785,9.124,9.124,0,0,0-1.124-2.7,1.023,1.023,0,0,1,.1-1.206l2.248-2.595L242.7,75.163,240.1,77.411a1.022,1.022,0,0,1-1.206.1,9.169,9.169,0,0,0-2.7-1.124,1.022,1.022,0,0,1-.784-.92l-.242-3.42h-2.185l-.244,3.423a1.022,1.022,0,0,1-.784.92,9.134,9.134,0,0,0-2.7,1.124,1.023,1.023,0,0,1-1.206-.1l-2.595-2.248-1.544,1.544,2.248,2.595a1.021,1.021,0,0,1,.1,1.206,9.133,9.133,0,0,0-1.124,2.7,1.022,1.022,0,0,1-.92.785l-3.425.242v2.185l3.423.244h0a1.022,1.022,0,0,1,.92.784,9.135,9.135,0,0,0,1.124,2.7,1.023,1.023,0,0,1-.1,1.206l-2.248,2.595,1.544,1.544,2.595-2.248a1.021,1.021,0,0,1,1.206-.1,9.168,9.168,0,0,0,2.7,1.124,1.021,1.021,0,0,1,.784.92Z" transform="translate(-201.377 -64.891)"/>
  <path id="Path_13" data-name="Path 13" d="M303.632,161.013a6.137,6.137,0,1,1,4.334-1.8A6.133,6.133,0,0,1,303.632,161.013Zm0-10.219a4.087,4.087,0,1,0,2.891,1.2A4.089,4.089,0,0,0,303.632,150.794Z" transform="translate(-270.93 -134.443)"/>
  <path id="Path_14" data-name="Path 14" d="M175,69.425V67.382a6.137,6.137,0,0,0,6.132-6.132h2.044A8.185,8.185,0,0,1,175,69.425Z" transform="translate(-162.737 -57.162)"/>
  <path id="Path_15" data-name="Path 15" d="M457.044,279.426H455a8.185,8.185,0,0,1,8.176-8.175v2.044a6.137,6.137,0,0,0-6.132,6.132Z" transform="translate(-410.035 -242.636)"/>
  <path id="Path_16" data-name="Path 16" d="M140,113.75h2.044v2.044H140Z" transform="translate(-131.825 -103.531)"/>
  <path id="Path_17" data-name="Path 17" d="M105,113.75h2.044v2.044H105Z" transform="translate(-100.912 -103.531)"/>
  <path id="Path_18" data-name="Path 18" d="M542.5,271.25h2.044v2.044H542.5Z" transform="translate(-487.316 -242.636)"/>
  <path id="Path_19" data-name="Path 19" d="M577.5,271.25h2.044v2.044H577.5Z" transform="translate(-518.228 -242.636)"/>
</svg>
