<svg xmlns="http://www.w3.org/2000/svg" width="22" height="36" viewBox="0 0 22 36">
  <g id="Group_208" data-name="Group 208" transform="translate(-209 -1135)">
    <g id="Group_203" data-name="Group 203" transform="translate(0 0)">
      <path id="Path_106" data-name="Path 106" d="M13.7.338,11.774,15.476h6.6L5.97,36.281h0L7.482,21.756H.916Z" transform="translate(210 1135.288)" fill="#ffe36e"/>
      <g id="noun-lightning-135384" transform="translate(209 1135)">
        <path id="Path_105" data-name="Path 105" d="M291.481,192.385a1.246,1.246,0,0,1-1.23-1.45l2.134-12.953h-5.4a1.247,1.247,0,0,1-1.068-1.89L298.006,156a1.247,1.247,0,0,1,2.3.845L298.171,169.8h5.4a1.247,1.247,0,0,1,1.068,1.89L292.55,191.779a1.246,1.246,0,0,1-1.069.6Zm-2.291-16.9h4.665a1.246,1.246,0,0,1,1.23,1.45l-1.315,7.977,7.594-12.622H296.7a1.246,1.246,0,0,1-1.23-1.448l1.315-7.977Z" transform="translate(-285.738 -155.394)" fill="#ffb324"/>
      </g>
    </g>
  </g>
</svg>