<?xml version="1.0" standalone="no"?>
<!DOCTYPE svg PUBLIC "-//W3C//DTD SVG 20010904//EN"
 "http://www.w3.org/TR/2001/REC-SVG-20010904/DTD/svg10.dtd">
<svg version="1.0" xmlns="http://www.w3.org/2000/svg"
 width="288.000000pt" height="298.000000pt" viewBox="0 0 288.000000 298.000000"
 preserveAspectRatio="xMidYMid meet">

<g transform="translate(0.000000,298.000000) scale(0.100000,-0.100000)"
fill="#000000" stroke="none">
<path d="M1305 2710 c-271 -54 -480 -242 -572 -514 l-28 -81 0 -505 0 -505 27
-80 c60 -172 163 -310 303 -404 131 -87 248 -121 420 -121 236 0 448 105 585
290 63 86 106 171 132 267 21 73 22 104 26 498 5 578 -8 658 -141 852 -112
165 -283 271 -492 308 -109 19 -146 18 -260 -5z m252 -145 c242 -46 435 -240
478 -480 20 -114 20 -836 0 -950 -39 -220 -209 -407 -427 -470 -61 -17 -217
-23 -278 -11 -177 37 -340 164 -418 326 -22 47 -46 114 -52 150 -7 43 -10 217
-8 520 l3 455 26 67 c40 103 87 174 161 243 79 73 182 127 283 149 91 19 136
19 232 1z"/>
<path d="M1414 2318 c-38 -18 -44 -50 -44 -237 0 -175 0 -179 25 -205 29 -32
76 -35 105 -6 19 19 20 33 20 215 0 195 0 196 -25 220 -26 27 -47 30 -81 13z"/>
</g>
</svg>
