<svg id="noun-webdesign-4437992" xmlns="http://www.w3.org/2000/svg" width="60.288" height="60.287" viewBox="0 0 60.288 60.287">
  <path id="Path_38" data-name="Path 38" d="M110,43.23A3.23,3.23,0,1,0,113.23,40,3.229,3.229,0,0,0,110,43.23Zm4.306,0a1.077,1.077,0,1,1-1.077-1.077A1.076,1.076,0,0,1,114.306,43.23Z" transform="translate(-105.694 -35.694)"/>
  <path id="Path_39" data-name="Path 39" d="M190,43.23A3.23,3.23,0,1,0,193.23,40,3.229,3.229,0,0,0,190,43.23Zm4.306,0a1.077,1.077,0,1,1-1.077-1.077A1.076,1.076,0,0,1,194.306,43.23Z" transform="translate(-177.082 -35.694)"/>
  <path id="Path_40" data-name="Path 40" d="M270,43.23A3.23,3.23,0,1,0,273.23,40,3.229,3.229,0,0,0,270,43.23Zm4.306,0a1.077,1.077,0,1,1-1.077-1.077A1.076,1.076,0,0,1,274.306,43.23Z" transform="translate(-248.469 -35.694)"/>
  <path id="Path_41" data-name="Path 41" d="M441.824,234.844a4.844,4.844,0,0,0-9.449-1.505,3.229,3.229,0,0,0,.836,6.349h3.768A4.849,4.849,0,0,0,441.824,234.844Zm-4.844,2.691h-3.768a1.077,1.077,0,0,1-.009-2.153l.979.019.135-.943a2.691,2.691,0,1,1,2.664,3.077Z" transform="translate(-391.227 -205.239)"/>
  <path id="Path_42" data-name="Path 42" d="M130,300h12.919v2.153H130Z" transform="translate(-123.541 -267.704)"/>
  <path id="Path_43" data-name="Path 43" d="M130,340h19.378v2.153H130Z" transform="translate(-123.541 -303.397)"/>
  <path id="Path_44" data-name="Path 44" d="M130,380h12.919v2.153H130Z" transform="translate(-123.541 -339.091)"/>
  <path id="Path_45" data-name="Path 45" d="M150.454,226.459V220H130v6.459h16.148v-2.153h-14v-2.153H148.3v4.306Z" transform="translate(-123.541 -196.316)"/>
  <path id="Path_46" data-name="Path 46" d="M130.292,14.941l0-1.077V0h-2.153V12.794l-53.829.125.005,2.153,53.825-.125v4.431H103.376V53.828h24.761v4.306H72.157V2.154h53.827V0H70V60.287H130.29V14.942ZM105.529,51.674V48.89l7.536-7.536,4.083,4.083,1.522-1.522-5.606-5.606-7.536,7.536V21.531h22.607v16.76l-9.35,8.789,1.475,1.569,7.875-7.4V51.674Z" transform="translate(-70.003)"/>
  <path id="Path_47" data-name="Path 47" d="M132.153,441.077A1.077,1.077,0,1,1,131.077,440a1.076,1.076,0,0,1,1.077,1.077" transform="translate(-123.541 -392.632)"/>
  <path id="Path_48" data-name="Path 48" d="M172.153,441.077A1.077,1.077,0,1,1,171.077,440a1.076,1.076,0,0,1,1.077,1.077" transform="translate(-159.235 -392.632)"/>
  <path id="Path_49" data-name="Path 49" d="M212.153,441.077A1.077,1.077,0,1,1,211.077,440a1.076,1.076,0,0,1,1.077,1.077" transform="translate(-194.929 -392.632)"/>
</svg>
